<?xml version="1.0" encoding="utf-8"?>
<!-- Generator: Adobe Illustrator 17.1.0, SVG Export Plug-In . SVG Version: 6.00 Build 0)  -->
<!DOCTYPE svg PUBLIC "-//W3C//DTD SVG 1.1//EN" "http://www.w3.org/Graphics/SVG/1.1/DTD/svg11.dtd">
<svg version="1.1" id="Calque_1" xmlns="http://www.w3.org/2000/svg" xmlns:xlink="http://www.w3.org/1999/xlink" x="0px" y="0px"
	 viewBox="0 0 800 600" enable-background="new 0 0 800 600" xml:space="preserve">
<circle fill="#D83000" cx="384.969" cy="273.035" r="18"/>
<circle fill="#D83000" cx="423.66" cy="237.035" r="18"/>
<circle fill="#D83000" cx="486.985" cy="264.348" r="18"/>
<circle fill="#D83000" cx="477.968" cy="326.201" r="18"/>
<circle fill="#D83000" cx="448.658" cy="391.437" r="18"/>
<circle fill="#D83000" cx="381.66" cy="359.981" r="18"/>
<circle fill="#D83000" cx="283.876" cy="318" r="18"/>
<circle fill="#D83000" cx="283.876" cy="218.169" r="18"/>
<circle fill="#D83000" cx="393.164" cy="179.851" r="18"/>
<circle fill="#D83000" cx="490.658" cy="179.851" r="18"/>
<circle fill="#D83000" cx="564.625" cy="285.5" r="18"/>
<circle fill="#D83000" cx="609.66" cy="409.437" r="18"/>
<circle fill="#D83000" cx="494.692" cy="477.219" r="18"/>
<circle fill="#D83000" cx="351.113" cy="468" r="18"/>
<circle fill="#D83000" cx="222.998" cy="418.751" r="18"/>
<circle fill="#D83000" cx="150" cy="273.662" r="18"/>
<circle fill="#D83000" cx="275" cy="125" r="18"/>
<circle fill="#D83000" cx="438.797" cy="92.333" r="18"/>
<circle fill="#D83000" cx="591.66" cy="123" r="18"/>
<circle fill="#D83000" cx="662.264" cy="264.348" r="18"/>
<g>
	<polygon fill="#D83000" points="308.004,150.333 344.259,137.994 351.583,137.994 345.62,114.51 363.153,34.865 329.337,38.038 
		291.975,63.298 271.954,71.237 216.749,114.51 207.455,107.027 164.881,144.952 158.618,171.195 218.004,200.169 230.838,173.333 	
		"/>
	<path fill="#D83000" d="M351.583,137.994l11.412-8.951l30.273,14.573l14.935,3.328l35.918-11.452l43.753-5.485l24.049,0.565
		l8.824-18.598c0,0,9.527-40.97,9.689-41.202s10.576-17.976,10.576-17.976V29.15l-82.896,1.456l-26.646,2.787l-68.317,1.472
		L345.62,114.51L351.583,137.994z"/>
	<polygon fill="#D83000" points="260.946,376.083 274.112,357.592 288.734,372.786 288.734,385.845 311.956,375.367 
		325.934,366.744 340.635,353.148 356.574,345.916 378.456,295.758 346.46,283.271 320.524,269.561 314.861,266.934 
		273.241,266.556 233.355,272.721 217.478,281.903 193.264,313.981 189.296,323.31 204.733,351.858 	"/>
	<polygon fill="#D83000" points="314.861,266.934 320.524,269.561 336.936,230.658 347.404,205.229 341.3,204.134 342.17,198.186 
		342.934,193.504 344.259,137.994 308.004,150.333 230.838,173.333 218.004,200.169 233.355,272.721 273.241,266.556 	"/>
	<polygon fill="#D83000" points="320.524,269.561 346.46,283.271 378.456,295.758 378.561,295.517 378.456,295.758 397.443,303.168 
		426.66,327.926 437.241,309.669 449.413,267.56 429.005,259.073 392.991,247.442 363.507,239.262 351.112,226.927 336.936,230.658 
			"/>
	<polygon fill="#D83000" points="378.456,295.758 356.574,345.916 340.635,353.148 325.934,366.744 311.956,375.367 
		323.578,390.293 345.62,400.744 345.62,400.744 345.62,400.744 395.099,424.203 418.606,355.298 426.66,327.926 397.443,303.168 	
		"/>
	<g>
		<polygon fill="#D83000" points="330.086,404.134 338.212,410.016 345.62,400.744 323.578,390.293 311.956,375.367 
			288.734,385.845 288.734,372.786 274.112,357.592 260.946,376.083 204.733,351.858 189.296,323.31 144.962,368.839 
			88.405,454.864 107.427,449.366 116.888,457.798 152.096,459.914 182.515,476.11 251.916,503.647 325.934,414.515 		"/>
		<polygon fill="#D83000" points="412.54,526.085 414.002,520.745 410.839,474.883 413.38,465.035 415.893,437.352 393.164,429.875 
			395.099,424.203 345.62,400.744 338.212,410.016 330.086,404.134 325.934,414.515 251.916,503.647 262.619,507.893 
			370.754,543.756 373.836,564.085 410.018,562.25 417.24,566.158 422.605,555.194 		"/>
	</g>
	<polygon fill="#D83000" points="393.268,143.616 362.994,129.043 351.583,137.994 344.259,137.994 342.934,193.504 342.17,198.186 
		341.3,204.134 347.404,205.229 336.936,230.658 351.112,226.927 351.015,226.83 351.112,226.927 406.221,212.421 438.797,220.676 
		440.031,197.863 443.237,178.241 446.126,151.542 444.121,135.492 408.203,146.945 	"/>
	<polygon fill="#D83000" points="714.703,328.062 713.839,303.492 710.304,284.356 708.68,206.897 704.473,192.219 695.112,172.632 
		671.268,182.171 642.806,189.57 620.719,186.829 610.985,193.955 602.876,193.955 592.374,201.85 581.546,201.85 564.625,209.575 
		564.625,209.575 608.984,267.949 618.813,298.365 629.745,303.539 638.722,312.039 656.194,344.271 662.264,366.744 
		719.036,373.437 720.329,357.686 	"/>
	<polygon fill="#D83000" points="41.271,424.144 57.034,449.065 88.405,454.864 144.962,368.839 189.296,323.31 193.264,313.981 
		217.478,281.903 233.355,272.721 218.004,200.169 158.618,171.195 157.575,178.039 147.525,179.355 137.291,187.31 96.719,262.336 
		50.351,392.745 	"/>
	<g>
		<polygon fill="#D83000" points="546.745,341.186 574.32,351.566 591.183,351.566 662.264,366.744 656.194,344.271 
			638.722,312.039 629.745,303.539 618.813,298.365 608.984,267.949 564.625,209.575 544.27,217.936 508.312,238.292 
			519.665,269.29 526.328,306.607 528.993,334.909 535.676,334.758 		"/>
		<polygon fill="#D83000" points="701.56,451.433 705.632,446.296 719.036,373.437 662.264,366.744 591.183,351.566 
			574.321,351.566 546.745,341.186 535.676,334.758 528.993,334.909 529.276,337.911 512.692,385.025 554.977,437.006 
			612.153,507.075 626.723,493.596 645.785,490.716 656.389,482.682 663.186,481.1 		"/>
	</g>
	<polygon fill="#D83000" points="535.656,141.384 527.604,130.941 511.923,130.572 511.923,130.572 511.923,130.572 
		487.874,130.007 444.121,135.492 446.126,151.542 443.237,178.241 440.031,197.863 438.797,220.676 508.312,238.292 
		544.27,217.936 564.625,209.575 535.656,171.452 	"/>
	<polygon fill="#D83000" points="426.66,327.926 418.606,355.298 395.099,424.203 395.099,424.203 395.099,424.203 393.164,429.875 
		415.893,437.352 455.077,447.736 500.586,426.046 512.691,385.025 489.682,359.541 	"/>
	<g>
		<polygon fill="#D83000" points="438.797,220.676 406.221,212.421 351.113,226.927 363.507,239.262 392.991,247.442 
			429.005,259.073 449.413,267.56 461.327,226.385 		"/>
		<g>
			<polygon fill="#D83000" points="498.753,309.669 527.465,318.68 526.328,306.607 519.665,269.29 508.312,238.292 
				461.327,226.385 449.413,267.56 446.505,277.621 471.908,286.662 			"/>
			<polygon fill="#D83000" points="527.465,318.68 498.753,309.669 471.908,286.662 446.505,277.621 437.241,309.669 
				426.66,327.926 489.682,359.541 512.692,385.025 529.276,337.911 			"/>
		</g>
	</g>
	<path fill="#D83000" d="M581.546,201.85h10.828l10.501-7.895h8.109l9.734-7.126l22.087,2.741l28.462-7.399l23.844-9.538
		L690.509,163l-29.395-11.502l-12.505-17.392l-0.792-37.936l-6.907-27.336l-5.711-12.336l-1.172-7.664l-18.655-14.222l-9.52-0.924
		l-26.982-5.203l-37.858,0.665v23.646c0,0-10.415,17.744-10.576,17.976s-9.689,41.202-9.689,41.202l-8.824,18.598l15.681,0.369
		l8.051,10.443v30.068l28.969,38.123h0L581.546,201.85z"/>
	<polygon fill="#D83000" points="455.077,447.736 415.893,437.352 413.38,465.035 410.839,474.883 414.002,520.745 412.54,526.085 
		422.605,555.194 417.24,566.158 423.254,569.413 427.99,564.119 438.254,565.75 453.964,548 474.254,549.811 489.431,562.25 
		507.152,562.25 611.679,517.631 612.153,507.075 554.977,437.006 512.691,385.025 500.586,426.046 	"/>
</g>
<rect x="0.005" fill="none" width="800" height="600"/>
<g>
	<path fill="#FFFFFF" d="M381.179,267.76c-0.805,0.783-2.179,1.382-2.179,1.685v2.988c1-0.531,2-1.363,3-2.496V282h3v-17h-2.298
		C382.39,266,381.984,266.978,381.179,267.76z"/>
	<path fill="#FFFFFF" d="M389.534,264.505c-0.672,0-1.228,0.274-1.665,0.823c-0.438,0.548-0.658,1.345-0.658,2.388
		c0,1.006,0.218,1.776,0.652,2.309s1.003,0.8,1.705,0.8c0.558,0,1.025-0.164,1.403-0.493c0.378-0.328,0.639-0.815,0.782-1.46
		l-0.865-0.131c-0.246,0.828-0.685,1.241-1.314,1.241c-0.402,0-0.744-0.136-1.025-0.481c-0.28-0.345-0.438-0.5-0.473-1.5h3.701
		l0.006-0.31c0-1.021-0.215-1.819-0.644-2.358S390.176,264.505,389.534,264.505z M388.128,267c0.026,0,0.173-0.912,0.438-1.225
		s0.586-0.449,0.962-0.449c0.417,0,0.761,0.156,1.03,0.532c0.187,0.258,0.298,1.141,0.336,1.141H388.128z"/>
	<path fill="#FFFFFF" d="M394.069,264.505c-0.201,0-0.379,0.069-0.541,0.208s-0.529,0.42-0.529,0.845V265h-1v6h1v-3.478
		c0-0.44,0.09-0.856,0.196-1.247c0.061-0.224,0.183-0.399,0.331-0.524c0.148-0.125,0.321-0.188,0.499-0.188
		c0.197,0,0.405,0.074,0.614,0.222l0.286-0.951C394.634,264.615,394.35,264.505,394.069,264.505z"/>
</g>
<g>
	<path fill="#FFFFFF" d="M423.443,240.444c0.93-1.038,1.594-1.891,1.992-2.559s0.693-1.331,0.885-1.99s0.287-1.341,0.287-2.043
		c0-1.241-0.375-2.342-1.125-3.302c-0.75-0.96-1.863-1.44-3.34-1.44c-1.344,0-2.42,0.41-3.229,1.23s-1.295,2.105-1.459,3.855
		l2.684,0.328c0.094-1.789,0.738-2.684,1.934-2.684c0.547,0,0.988,0.191,1.324,0.574c0.336,0.383,0.504,0.949,0.504,1.698
		c0,0.703-0.203,1.401-0.609,2.096c-0.273,0.476-1.004,1.39-2.191,2.74c-1.5,1.694-2.51,2.888-3.029,3.93
		c-0.52,1.042-0.83,2.122-0.932,3.122H427v-3h-5.76c0.141,0,0.326-0.456,0.557-0.768
		C422.027,241.919,422.576,241.42,423.443,240.444z"/>
	<path fill="#FFFFFF" d="M432.254,231.69c0-1.021-0.215-1.819-0.644-2.358s-0.964-0.818-1.605-0.818
		c-0.672,0-1.228,0.27-1.665,0.818c-0.438,0.548-0.658,1.342-0.658,2.386c0,1.006,0.218,1.775,0.652,2.308s1.003,0.799,1.705,0.799
		c0.558,0,1.025-0.164,1.403-0.493c0.378-0.328,0.639-0.815,0.782-1.461l-0.865-0.131c-0.246,0.828-0.685,1.241-1.314,1.241
		c-0.402,0-0.744-0.136-1.025-0.481c-0.28-0.345-0.438-0.501-0.473-1.501h3.701L432.254,231.69z M428.599,231
		c0.026,0,0.173-0.912,0.438-1.225s0.586-0.449,0.962-0.449c0.417,0,0.761,0.156,1.03,0.532c0.187,0.258,0.298,1.141,0.336,1.141
		H428.599z"/>
</g>
<g>
	<path fill="#FFFFFF" d="M487.413,264.427c0.68-0.453,1.189-0.979,1.529-1.58s0.51-1.275,0.51-2.024
		c0-1.108-0.378-2.118-1.133-3.031s-1.773-1.369-3.057-1.369c-1.142,0-2.089,0.355-2.84,1.066s-1.256,1.852-1.514,3.422l2.496,0.516
		c0.062-0.758,0.261-1.33,0.594-1.717s0.728-0.58,1.182-0.58c0.455,0,0.827,0.167,1.117,0.502s0.436,0.798,0.436,1.391
		c0,0.709-0.2,1.258-0.601,1.647c-0.408,0.39-0.962,0.577-1.661,0.561l-0.293,2.684c0.479-0.164,0.89-0.246,1.235-0.246
		c0.525,0,0.972,0.238,1.341,0.715c0.368,0.477,0.553,1.133,0.553,1.969c0,0.898-0.192,1.602-0.576,2.109s-0.854,0.762-1.41,0.762
		c-0.51,0-0.952-0.214-1.328-0.642s-0.6-1.046-0.67-1.854l-2.613,0.387c0.141,1.496,0.64,2.677,1.496,3.542
		c0.856,0.865,1.902,1.298,3.139,1.298c1.291,0,2.403-0.514,3.338-1.541s1.402-2.326,1.402-3.896c0-1.078-0.248-1.977-0.744-2.695
		S488.202,264.638,487.413,264.427z"/>
	<path fill="#FFFFFF" d="M495.579,258.847c0-1.021-0.215-1.741-0.644-2.28s-0.964-0.779-1.605-0.779
		c-0.672,0-1.228,0.289-1.665,0.838c-0.438,0.548-0.658,1.352-0.658,2.396c0,1.006,0.218,1.78,0.652,2.313s1.003,0.802,1.705,0.802
		c0.558,0,1.025-0.163,1.403-0.492c0.378-0.328,0.639-0.814,0.782-1.46l-0.865-0.131c-0.246,0.828-0.685,1.241-1.314,1.241
		c-0.402,0-0.744-0.292-1.025-0.638c-0.28-0.345-0.438-0.657-0.473-1.657h3.701L495.579,258.847z M491.924,258
		c0.026,0,0.173-0.755,0.438-1.068s0.586-0.37,0.962-0.37c0.417,0,0.761,0.039,1.03,0.414c0.187,0.258,0.298,1.024,0.336,1.024
		H491.924z"/>
</g>
<g>
	<path fill="#FFFFFF" d="M480,318h-2.577L471,329.175V332h6v4h3v-4h1v-3h-1V318z M477,329h-3.151l3.151-5.702V329z"/>
	<path fill="#FFFFFF" d="M486.562,320.773c0-1.021-0.215-1.778-0.644-2.317s-0.964-0.797-1.605-0.797
		c-0.672,0-1.228,0.28-1.665,0.829c-0.438,0.548-0.658,1.348-0.658,2.391c0,1.006,0.218,1.778,0.652,2.311s1.003,0.801,1.705,0.801
		c0.558,0,1.025-0.164,1.403-0.493c0.378-0.328,0.639-0.814,0.782-1.46l-0.865-0.131c-0.246,0.827-0.685,1.241-1.314,1.241
		c-0.402,0-0.744-0.219-1.025-0.565c-0.28-0.345-0.438-0.583-0.473-1.583h3.701L486.562,320.773z M482.906,320
		c0.026,0,0.173-0.828,0.438-1.142c0.266-0.312,0.586-0.407,0.962-0.407c0.417,0,0.761,0.095,1.03,0.47
		c0.187,0.259,0.298,1.079,0.336,1.079H482.906z"/>
</g>
<g>
	<path fill="#FFFFFF" d="M447.698,389.255c-0.626,0-1.244,0.24-1.854,0.607l0.439-2.862H451v-3h-6.777l-1.383,8.844l2.195,0.338
		c0.618-0.836,1.315-1.278,2.09-1.278c0.61,0,1.113,0.245,1.509,0.759c0.396,0.516,0.593,1.304,0.593,2.381
		c0,1.139-0.199,1.979-0.598,2.529s-0.875,0.824-1.43,0.824c-0.469,0-0.898-0.216-1.289-0.645s-0.621-1.02-0.691-1.77l-2.695,0.351
		c0.172,1.508,0.678,2.67,1.518,3.486s1.885,1.225,3.135,1.225c1.547,0,2.736-0.633,3.568-1.898s1.248-2.652,1.248-4.16
		c0-1.828-0.489-3.301-1.467-4.418C449.751,389.692,448.809,389.255,447.698,389.255z"/>
	<path fill="#FFFFFF" d="M457.252,385.891c0-1.021-0.215-1.719-0.644-2.258s-0.964-0.767-1.605-0.767
		c-0.672,0-1.228,0.295-1.665,0.844c-0.438,0.548-0.658,1.355-0.658,2.398c0,1.006,0.218,1.782,0.652,2.315s1.003,0.802,1.705,0.802
		c0.558,0,1.025-0.163,1.403-0.492c0.378-0.328,0.639-0.814,0.782-1.459l-0.865-0.131c-0.246,0.827-0.685,1.241-1.314,1.241
		c-0.402,0-0.744-0.337-1.025-0.683c-0.28-0.345-0.438-0.702-0.473-1.702h3.701L457.252,385.891z M453.597,385
		c0.026,0,0.173-0.71,0.438-1.023c0.266-0.312,0.586-0.348,0.962-0.348c0.417,0,0.761,0.006,1.03,0.381
		c0.187,0.259,0.298,0.99,0.336,0.99H453.597z"/>
</g>
<g>
	<path fill="#FFFFFF" d="M380.779,358.149c-0.5,0-0.958,0.121-1.373,0.363s-0.79,0.605-1.127,1.09
		c0.102-1.945,0.347-3.238,0.734-3.879c0.389-0.641,0.876-0.961,1.464-0.961c0.901,0,1.415,0.637,1.54,1.91l2.613-0.352
		c-0.195-1.434-0.651-2.503-1.367-3.208s-1.594-1.058-2.634-1.058c-1.51,0-2.746,0.691-3.708,2.073s-1.443,3.646-1.443,6.792
		c0,3.1,0.464,5.319,1.391,6.658s2.094,2.008,3.502,2.008c1.283,0,2.358-0.515,3.227-1.545s1.303-2.451,1.303-4.262
		c0-1.701-0.411-3.064-1.232-4.091C382.846,358.663,381.883,358.149,380.779,358.149z M381.752,366.144
		c-0.333,0.476-0.75,0.713-1.252,0.713c-0.517,0-0.978-0.286-1.381-0.859s-0.605-1.401-0.605-2.485c0-0.975,0.18-1.708,0.541-2.199
		c0.36-0.491,0.799-0.737,1.316-0.737c0.533,0,0.979,0.258,1.34,0.772s0.541,1.333,0.541,2.456
		C382.252,364.888,382.085,365.668,381.752,366.144z"/>
	<path fill="#FFFFFF" d="M390.254,354.663c0-1.021-0.215-1.833-0.644-2.372s-0.964-0.824-1.605-0.824
		c-0.672,0-1.228,0.266-1.665,0.814c-0.438,0.549-0.658,1.341-0.658,2.385c0,1.006,0.218,1.773,0.652,2.307s1.003,0.799,1.705,0.799
		c0.558,0,1.025-0.165,1.403-0.493s0.639-0.816,0.782-1.461l-0.865-0.131c-0.246,0.828-0.685,1.241-1.314,1.241
		c-0.402,0-0.744-0.108-1.025-0.454c-0.28-0.346-0.438-0.474-0.473-1.474h3.701L390.254,354.663z M386.599,354
		c0.026,0,0.173-0.939,0.438-1.251c0.266-0.313,0.586-0.462,0.962-0.462c0.417,0,0.761,0.176,1.03,0.552
		c0.187,0.258,0.298,1.161,0.336,1.161H386.599z"/>
</g>
<g>
	<path fill="#FFFFFF" d="M277,313h6.596c-1.273,2-2.285,4.213-3.035,6.643S279.404,325,279.342,327h2.602
		c0-1,0.213-3.162,0.639-5.087s1.183-3.652,1.96-5.336s1.458-2.904,2.458-3.818V310h-10V313z"/>
	<path fill="#FFFFFF" d="M292.711,312.673c0-1.021-0.215-1.828-0.644-2.367s-0.964-0.822-1.605-0.822
		c-0.672,0-1.228,0.268-1.665,0.816c-0.438,0.549-0.658,1.341-0.658,2.385c0,1.006,0.218,1.774,0.652,2.307s1.003,0.799,1.705,0.799
		c0.558,0,1.025-0.164,1.403-0.493s0.639-0.816,0.782-1.461l-0.865-0.131c-0.246,0.828-0.685,1.241-1.314,1.241
		c-0.402,0-0.744-0.118-1.025-0.464c-0.28-0.346-0.438-0.483-0.473-1.483h3.701L292.711,312.673z M289.056,312
		c0.026,0,0.173-0.929,0.438-1.242c0.266-0.313,0.586-0.457,0.962-0.457c0.417,0,0.761,0.169,1.03,0.545
		c0.187,0.258,0.298,1.154,0.336,1.154H289.056z"/>
</g>
<g>
	<path fill="#FFFFFF" d="M284.538,218.207c0.602-0.319,1.076-0.785,1.424-1.397c0.348-0.612,0.521-1.335,0.521-2.169
		c0-1.224-0.359-2.263-1.078-3.116s-1.766-1.28-3.141-1.28c-1.297,0-2.328,0.399-3.094,1.198c-0.766,0.799-1.148,1.873-1.148,3.222
		c0,0.834,0.167,1.547,0.501,2.14c0.334,0.592,0.832,1.06,1.492,1.403c-0.754,0.391-1.334,0.957-1.738,1.698
		s-0.606,1.628-0.606,2.659c0,1.593,0.443,2.86,1.33,3.801s2.01,1.411,3.369,1.411c0.867,0,1.648-0.215,2.344-0.644
		c0.695-0.43,1.24-1.05,1.635-1.862s0.592-1.749,0.592-2.811c0-1.03-0.199-1.899-0.598-2.606
		C285.944,219.146,285.343,218.598,284.538,218.207z M281.058,213.4c0.32-0.361,0.73-0.542,1.23-0.542
		c0.477,0,0.873,0.179,1.189,0.536s0.475,0.858,0.475,1.503c0,0.668-0.16,1.181-0.48,1.538s-0.727,0.536-1.219,0.536
		c-0.484,0-0.885-0.179-1.201-0.536s-0.475-0.87-0.475-1.538C280.577,214.26,280.737,213.761,281.058,213.4z M283.698,224.414
		c-0.372,0.476-0.832,0.713-1.381,0.713s-1.019-0.25-1.41-0.749c-0.393-0.499-0.588-1.208-0.588-2.128
		c0-0.795,0.189-1.432,0.57-1.912c0.38-0.479,0.844-0.719,1.393-0.719c0.557,0,1.024,0.238,1.404,0.713s0.57,1.123,0.57,1.941
		C284.257,223.225,284.07,223.939,283.698,224.414z"/>
	<path fill="#FFFFFF" d="M292.47,212.757c0-1.021-0.215-1.785-0.644-2.324s-0.964-0.801-1.605-0.801
		c-0.672,0-1.228,0.278-1.665,0.827c-0.438,0.548-0.658,1.347-0.658,2.39c0,1.006,0.218,1.777,0.652,2.31s1.003,0.8,1.705,0.8
		c0.558,0,1.025-0.164,1.403-0.492c0.378-0.328,0.639-0.815,0.782-1.46l-0.865-0.131c-0.246,0.828-0.685,1.241-1.314,1.241
		c-0.402,0-0.744-0.203-1.025-0.549c-0.28-0.345-0.438-0.568-0.473-1.568h3.701L292.47,212.757z M288.814,212
		c0.026,0,0.173-0.844,0.438-1.157s0.586-0.415,0.962-0.415c0.417,0,0.761,0.106,1.03,0.481c0.187,0.258,0.298,1.091,0.336,1.091
		H288.814z"/>
</g>
<g>
	<path fill="#FFFFFF" d="M391.283,171.926c-1.273,0-2.344,0.519-3.211,1.557s-1.301,2.462-1.301,4.273
		c0,1.693,0.412,3.051,1.236,4.074s1.771,1.534,2.842,1.534c0.516,0,0.984-0.121,1.406-0.363s0.801-0.602,1.137-1.078
		c-0.109,1.942-0.355,3.23-0.738,3.865c-0.383,0.634-0.875,0.952-1.477,0.952c-0.891,0-1.398-0.637-1.523-1.91l-2.613,0.352
		c0.195,1.453,0.639,2.529,1.33,3.229s1.568,1.049,2.631,1.049c1.531,0,2.777-0.69,3.738-2.071c0.961-1.381,1.441-3.647,1.441-6.8
		c0-3.097-0.461-5.315-1.383-6.653C393.877,172.595,392.705,171.926,391.283,171.926z M392.613,180.212
		c-0.363,0.491-0.799,0.737-1.307,0.737c-0.531,0-0.979-0.257-1.342-0.772s-0.545-1.326-0.545-2.433s0.166-1.898,0.498-2.375
		c0.332-0.476,0.748-0.713,1.248-0.713c0.516,0,0.977,0.289,1.383,0.866s0.609,1.403,0.609,2.479
		C393.158,178.984,392.977,179.721,392.613,180.212z"/>
	<path fill="#FFFFFF" d="M401.758,174.598c0-1.021-0.215-1.865-0.644-2.404s-0.964-0.841-1.605-0.841
		c-0.672,0-1.228,0.258-1.665,0.807c-0.438,0.548-0.658,1.337-0.658,2.38c0,1.006,0.218,1.772,0.652,2.305s1.003,0.798,1.705,0.798
		c0.558,0,1.025-0.165,1.403-0.494c0.378-0.328,0.639-0.815,0.782-1.461l-0.865-0.131c-0.246,0.828-0.685,1.241-1.314,1.241
		c-0.402,0-0.744-0.044-1.025-0.389c-0.28-0.345-0.438-1.409-0.473-1.409h3.701L401.758,174.598z M398.103,174
		c0.026-1,0.173-1.004,0.438-1.317s0.586-0.495,0.962-0.495c0.417,0,0.761,0.226,1.03,0.601c0.187,0.258,0.298,0.21,0.336,1.21
		H398.103z"/>
</g>
<g>
	<path fill="#FFFFFF" d="M482.257,174.668c-0.805,0.783-1.257,1.29-2.257,1.593v2.988c1-0.531,2-1.363,3-2.496V189h3v-17h-2.142
		C483.546,173,483.062,173.886,482.257,174.668z"/>
	<path fill="#FFFFFF" d="M494.399,171.926c-1.359,0-2.461,0.65-3.305,1.95c-0.844,1.3-1.266,3.562-1.266,6.787
		c0,3.287,0.422,5.574,1.266,6.863c0.844,1.288,1.949,1.932,3.316,1.932c1.359,0,2.461-0.65,3.305-1.95
		c0.844-1.3,1.266-3.57,1.266-6.81c0-3.248-0.422-5.521-1.266-6.822C496.872,172.576,495.767,171.926,494.399,171.926z
		 M495.687,185.673c-0.313,0.703-0.74,1.054-1.281,1.054c-0.533,0-0.958-0.349-1.275-1.048c-0.318-0.698-0.477-2.359-0.477-4.981
		s0.158-4.285,0.477-4.987c0.317-0.702,0.742-1.054,1.275-1.054c0.541,0,0.968,0.352,1.281,1.054
		c0.313,0.703,0.471,2.365,0.471,4.987C496.157,183.312,496,184.971,495.687,185.673z"/>
	<path fill="#FFFFFF" d="M504.604,174.598c0-1.021-0.215-1.865-0.644-2.404s-0.964-0.841-1.605-0.841
		c-0.672,0-1.228,0.258-1.665,0.807c-0.438,0.548-0.658,1.337-0.658,2.38c0,1.006,0.218,1.772,0.652,2.305s1.003,0.798,1.705,0.798
		c0.558,0,1.025-0.165,1.403-0.494c0.378-0.328,0.639-0.815,0.782-1.461l-0.865-0.131c-0.246,0.828-0.685,1.241-1.314,1.241
		c-0.402,0-0.744-0.044-1.025-0.389c-0.28-0.345-0.438-1.409-0.473-1.409h3.701L504.604,174.598z M500.949,174
		c0.026-1,0.173-1.004,0.438-1.317s0.586-0.495,0.962-0.495c0.417,0,0.761,0.226,1.03,0.601c0.187,0.258,0.298,0.21,0.336,1.21
		H500.949z"/>
</g>
<g>
	<path fill="#FFFFFF" d="M558.14,280.493c-0.805,0.783-2.14,1.114-2.14,1.418v2.988c1-0.531,2-1.363,3-2.496V295h3v-17h-2.376
		C559.312,279,558.945,279.71,558.14,280.493z"/>
	<path fill="#FFFFFF" d="M566.174,280.493c-0.805,0.783-2.174,1.114-2.174,1.418v2.988c1-0.531,2-1.363,3-2.496V295h3v-17h-2.309
		C567.379,279,566.979,279.71,566.174,280.493z"/>
	<path fill="#FFFFFF" d="M576.772,279.923c0-1.021-0.215-1.703-0.644-2.242s-0.964-0.76-1.605-0.76
		c-0.672,0-1.228,0.299-1.665,0.847c-0.438,0.548-0.658,1.357-0.658,2.4c0,1.006,0.218,1.782,0.652,2.315s1.003,0.803,1.705,0.803
		c0.558,0,1.025-0.163,1.403-0.491c0.378-0.328,0.639-0.814,0.782-1.46l-0.865-0.13c-0.246,0.828-0.685,1.241-1.314,1.241
		c-0.402,0-0.744-0.368-1.025-0.714c-0.28-0.345-0.438-0.733-0.473-1.733h3.701L576.772,279.923z M573.117,280
		c0.026-1,0.173-1.179,0.438-1.492s0.586-0.582,0.962-0.582c0.417,0,0.761,0.357,1.03,0.732c0.187,0.258,0.298,0.342,0.336,1.342
		H573.117z"/>
</g>
<g>
	<path fill="#FFFFFF" d="M602.148,404.461c-0.805,0.783-2.148,1.083-2.148,1.387v2.988c1-0.531,2-1.363,3-2.496V419h3v-17h-2.359
		C603.328,403,602.953,403.679,602.148,404.461z"/>
	<path fill="#FFFFFF" d="M614.017,412.847c0.93-1.038,1.594-1.891,1.992-2.559c0.398-0.667,0.693-1.33,0.885-1.99
		c0.191-0.659,0.287-1.341,0.287-2.043c0-1.241-0.375-2.342-1.125-3.302c-0.75-0.961-1.863-1.44-3.34-1.44
		c-1.344,0-2.42,0.41-3.229,1.23s-1.295,2.105-1.459,3.855l2.684,0.328c0.094-1.789,0.738-2.684,1.934-2.684
		c0.547,0,0.988,0.191,1.324,0.573c0.336,0.383,0.504,0.949,0.504,1.698c0,0.702-0.203,1.401-0.609,2.096
		c-0.273,0.477-1.004,1.39-2.191,2.74c-1.5,1.694-2.51,3.186-3.029,4.229c-0.52,1.042-0.83,2.42-0.932,3.42H617v-3h-5.187
		c0.141-1,0.326-0.755,0.557-1.067C612.601,414.621,613.149,413.822,614.017,412.847z"/>
	<path fill="#FFFFFF" d="M622.827,403.891c0-1.021-0.215-1.719-0.644-2.258s-0.964-0.767-1.605-0.767
		c-0.672,0-1.228,0.295-1.665,0.844c-0.438,0.548-0.658,1.355-0.658,2.398c0,1.006,0.218,1.782,0.652,2.315s1.003,0.802,1.705,0.802
		c0.558,0,1.025-0.163,1.403-0.492c0.378-0.328,0.639-0.814,0.782-1.459l-0.865-0.131c-0.246,0.827-0.685,1.241-1.314,1.241
		c-0.402,0-0.744-0.337-1.025-0.683c-0.28-0.345-0.438-0.702-0.473-1.702h3.701L622.827,403.891z M619.172,403
		c0.026,0,0.173-0.71,0.438-1.023c0.266-0.312,0.586-0.348,0.962-0.348c0.417,0,0.761,0.006,1.03,0.381
		c0.187,0.259,0.298,0.99,0.336,0.99H619.172z"/>
</g>
<g>
	<path fill="#FFFFFF" d="M487.165,471.853c-0.805,0.783-2.165,1.473-2.165,1.777v2.988c1-0.531,2-1.363,3-2.496V487h3v-18h-2.327
		C488.36,470,487.969,471.07,487.165,471.853z"/>
	<path fill="#FFFFFF" d="M499.693,477.298c0.68-0.452,1.189-0.979,1.529-1.579c0.34-0.602,0.51-1.275,0.51-2.025
		c0-1.107-0.378-2.117-1.133-3.03s-1.773-1.369-3.057-1.369c-1.142,0-2.089,0.355-2.84,1.066s-1.256,1.852-1.514,3.422l2.496,0.516
		c0.062-0.758,0.261-1.33,0.594-1.717s0.728-0.58,1.182-0.58c0.455,0,0.827,0.167,1.117,0.503c0.29,0.334,0.436,0.798,0.436,1.391
		c0,0.709-0.2,1.258-0.601,1.646c-0.408,0.391-0.962,0.577-1.661,0.562l-0.293,2.684c0.479-0.164,0.89-0.246,1.235-0.246
		c0.525,0,0.972,0.238,1.341,0.715c0.368,0.477,0.553,1.133,0.553,1.969c0,0.898-0.192,1.602-0.576,2.109s-0.854,0.762-1.41,0.762
		c-0.51,0-0.952-0.214-1.328-0.642s-0.6-1.046-0.67-1.854l-2.613,0.387c0.141,1.496,0.64,2.677,1.496,3.542s1.902,1.298,3.139,1.298
		c1.291,0,2.403-0.514,3.338-1.541s1.402-2.326,1.402-3.896c0-1.078-0.248-1.977-0.744-2.695S500.482,477.509,499.693,477.298z"/>
	<path fill="#FFFFFF" d="M507.859,471.782c0-1.021-0.215-1.773-0.644-2.312s-0.964-0.795-1.605-0.795
		c-0.672,0-1.228,0.28-1.665,0.829c-0.438,0.549-0.658,1.348-0.658,2.392c0,1.006,0.218,1.777,0.652,2.31s1.003,0.801,1.705,0.801
		c0.558,0,1.025-0.164,1.403-0.493c0.378-0.328,0.639-0.814,0.782-1.46l-0.865-0.131c-0.246,0.827-0.685,1.241-1.314,1.241
		c-0.402,0-0.744-0.228-1.025-0.573c-0.28-0.346-0.438-0.593-0.473-1.593h3.701L507.859,471.782z M504.204,471
		c0.026,0,0.173-0.819,0.438-1.132c0.266-0.313,0.586-0.404,0.962-0.404c0.417,0,0.761,0.088,1.03,0.464
		c0.187,0.258,0.298,1.072,0.336,1.072H504.204z"/>
</g>
<g>
	<path fill="#FFFFFF" d="M343.375,462.744c-0.805,0.783-1.375,1.364-2.375,1.667v2.988c1-0.531,3-1.363,4-2.496V477h2v-17h-1.906
		C344.781,461,344.18,461.96,343.375,462.744z"/>
	<path fill="#FFFFFF" d="M357,460h-1.858L349,470.974V474h6v3h2v-3h2v-3h-2V460z M355,471h-3.433l3.433-5.902V471z"/>
	<path fill="#FFFFFF" d="M364.28,462.673c0-1.021-0.215-1.828-0.644-2.367s-0.964-0.822-1.605-0.822
		c-0.672,0-1.228,0.268-1.665,0.816c-0.438,0.549-0.658,1.341-0.658,2.385c0,1.006,0.218,1.774,0.652,2.307s1.003,0.799,1.705,0.799
		c0.558,0,1.025-0.164,1.403-0.493s0.639-0.816,0.782-1.461l-0.865-0.131c-0.246,0.828-0.685,1.241-1.314,1.241
		c-0.402,0-0.744-0.118-1.025-0.464c-0.28-0.346-0.438-0.483-0.473-1.483h3.701L364.28,462.673z M360.625,462
		c0.026,0,0.173-0.929,0.438-1.242c0.266-0.313,0.586-0.457,0.962-0.457c0.417,0,0.761,0.169,1.03,0.545
		c0.187,0.258,0.298,1.154,0.336,1.154H360.625z"/>
</g>
<g>
	<path fill="#FFFFFF" d="M215.318,413.618c-0.805,0.783-1.318,1.24-2.318,1.544v2.988c1-0.531,2-1.363,3-2.496V428h3v-17h-2.021
		C216.667,412,216.122,412.836,215.318,413.618z"/>
	<path fill="#FFFFFF" d="M226.612,416.568c-0.626,0-1.244,0.083-1.854,0.45l0.439-3.019H230v-3h-6.864l-1.383,9.001l2.195,0.417
		c0.618-0.836,1.315-1.239,2.09-1.239c0.61,0,1.113,0.264,1.509,0.779c0.396,0.516,0.593,1.314,0.593,2.39
		c0,1.139-0.199,1.984-0.598,2.534s-0.875,0.826-1.43,0.826c-0.469,0-0.898-0.214-1.289-0.644s-0.621-1.019-0.691-1.769
		l-2.695,0.352c0.172,1.508,0.678,2.67,1.518,3.486s1.885,1.225,3.135,1.225c1.547,0,2.736-0.633,3.568-1.898
		s1.248-2.652,1.248-4.16c0-1.828-0.489-3.301-1.467-4.418C228.665,417.006,227.722,416.568,226.612,416.568z"/>
	<path fill="#FFFFFF" d="M236.166,413.548c0-1.021-0.215-1.89-0.644-2.429s-0.964-0.853-1.605-0.853
		c-0.672,0-1.228,0.252-1.665,0.801c-0.438,0.548-0.658,1.334-0.658,2.377c0,1.006,0.218,1.771,0.652,2.304s1.003,0.797,1.705,0.797
		c0.558,0,1.025-0.165,1.403-0.495c0.378-0.328,0.639-0.815,0.782-1.461l-0.865-0.131c-0.246,0.827-0.685,1.241-1.314,1.241
		c-0.402,0-0.744,0.006-1.025-0.34c-0.28-0.345-0.438-1.358-0.473-1.358h3.701L236.166,413.548z M232.51,413
		c0.026-1,0.173-1.053,0.438-1.367c0.266-0.312,0.586-0.52,0.962-0.52c0.417,0,0.761,0.264,1.03,0.639
		c0.187,0.259,0.298,0.248,0.336,1.248H232.51z"/>
</g>
<g>
	<path fill="#FFFFFF" d="M142.318,268.574c-0.805,0.783-1.318,1.195-2.318,1.499v2.988c1-0.531,2-1.363,3-2.496V283h3v-17h-2.02
		C143.668,267,143.123,267.792,142.318,268.574z"/>
	<path fill="#FFFFFF" d="M153.692,271.831c-0.5,0-0.958,0.121-1.373,0.363s-0.79,0.605-1.127,1.09
		c0.102-1.945,0.347-3.238,0.734-3.879c0.389-0.641,0.876-0.961,1.464-0.961c0.901,0,1.415,0.637,1.54,1.91l2.613-0.352
		c-0.195-1.434-0.651-2.503-1.367-3.208s-1.594-1.058-2.634-1.058c-1.51,0-2.746,0.691-3.708,2.073
		c-0.962,1.382-1.443,3.646-1.443,6.792c0,3.1,0.464,5.319,1.391,6.658s2.094,2.008,3.502,2.008c1.283,0,2.358-0.515,3.227-1.545
		c0.868-1.03,1.303-2.451,1.303-4.261c0-1.701-0.411-3.065-1.232-4.091C155.759,272.344,154.796,271.831,153.692,271.831z
		 M154.665,279.825c-0.333,0.476-0.75,0.713-1.252,0.713c-0.517,0-0.978-0.287-1.381-0.86c-0.403-0.573-0.605-1.401-0.605-2.485
		c0-0.975,0.18-1.708,0.541-2.199c0.36-0.491,0.799-0.737,1.316-0.737c0.533,0,0.979,0.257,1.34,0.772s0.541,1.333,0.541,2.457
		C155.165,278.569,154.998,279.349,154.665,279.825z"/>
	<path fill="#FFFFFF" d="M163.167,268.504c0-1.021-0.215-1.912-0.644-2.451s-0.964-0.864-1.605-0.864
		c-0.672,0-1.228,0.247-1.665,0.795c-0.438,0.548-0.658,1.331-0.658,2.374c0,1.006,0.218,1.769,0.652,2.302s1.003,0.796,1.705,0.796
		c0.558,0,1.025-0.166,1.403-0.494c0.378-0.328,0.639-0.816,0.782-1.461l-0.865-0.131c-0.246,0.828-0.685,1.241-1.314,1.241
		c-0.402,0-0.744,0.05-1.025-0.295c-0.28-0.345-0.438-1.314-0.473-1.314h3.701L163.167,268.504z M159.512,268
		c0.026-1,0.173-1.098,0.438-1.411s0.586-0.542,0.962-0.542c0.417,0,0.761,0.296,1.03,0.672c0.187,0.258,0.298,0.281,0.336,1.281
		H159.512z"/>
</g>
<g>
	<path fill="#FFFFFF" d="M267.198,119.743c-0.805,0.783-2.198,1.364-2.198,1.668v2.988c1-0.531,2-1.363,3-2.496V134h3v-17h-2.26
		C268.428,118,268.003,118.96,267.198,119.743z"/>
	<path fill="#FFFFFF" d="M273,120h6.292c-1.273,2-2.285,4.213-3.035,6.643S275.101,132,275.038,134h2.602
		c0-1,0.213-3.162,0.639-5.087s0.834-3.652,1.612-5.336s2.11-2.904,2.11-3.818V117h-9V120z"/>
	<path fill="#FFFFFF" d="M288.407,119.673c0-1.021-0.215-1.828-0.644-2.367s-0.964-0.822-1.605-0.822
		c-0.672,0-1.228,0.268-1.665,0.816c-0.438,0.548-0.658,1.341-0.658,2.385c0,1.006,0.218,1.774,0.652,2.307s1.003,0.799,1.705,0.799
		c0.558,0,1.025-0.164,1.403-0.493c0.378-0.328,0.639-0.815,0.782-1.461l-0.865-0.131c-0.246,0.828-0.685,1.241-1.314,1.241
		c-0.402,0-0.744-0.118-1.025-0.464c-0.28-0.345-0.438-0.483-0.473-1.483h3.701L288.407,119.673z M284.752,119
		c0.026,0,0.173-0.929,0.438-1.242s0.586-0.457,0.962-0.457c0.417,0,0.761,0.169,1.03,0.545c0.187,0.258,0.298,1.154,0.336,1.154
		H284.752z"/>
</g>
<g>
	<path fill="#FFFFFF" d="M431.217,86.91c-0.805,0.783-1.217,1.531-2.217,1.835v2.988c1-0.531,2-1.363,3-2.496V102h3V84h-2.223
		C432.465,85,432.021,86.127,431.217,86.91z"/>
	<path fill="#FFFFFF" d="M444.032,92.371c0.602-0.319,1.076-0.785,1.424-1.397c0.348-0.612,0.521-1.335,0.521-2.169
		c0-1.224-0.359-2.263-1.078-3.116s-1.766-1.28-3.141-1.28c-1.297,0-2.328,0.399-3.094,1.198c-0.766,0.799-1.148,1.873-1.148,3.222
		c0,0.834,0.167,1.547,0.501,2.14c0.334,0.592,0.832,1.06,1.492,1.403c-0.754,0.391-1.334,0.957-1.738,1.698
		s-0.606,1.628-0.606,2.659c0,1.593,0.443,2.86,1.33,3.801s2.01,1.411,3.369,1.411c0.867,0,1.648-0.215,2.344-0.644
		c0.695-0.43,1.24-1.05,1.635-1.862s0.592-1.749,0.592-2.811c0-1.03-0.199-1.899-0.598-2.606
		C445.438,93.31,444.837,92.762,444.032,92.371z M440.552,87.564c0.32-0.361,0.73-0.542,1.23-0.542c0.477,0,0.873,0.179,1.189,0.536
		s0.475,0.858,0.475,1.503c0,0.668-0.16,1.181-0.48,1.538s-0.727,0.536-1.219,0.536c-0.484,0-0.885-0.179-1.201-0.536
		s-0.475-0.87-0.475-1.538C440.071,88.424,440.231,87.925,440.552,87.564z M443.192,98.578c-0.372,0.476-0.832,0.713-1.381,0.713
		s-1.019-0.25-1.41-0.749c-0.393-0.499-0.588-1.208-0.588-2.128c0-0.795,0.189-1.432,0.57-1.912c0.38-0.479,0.844-0.719,1.393-0.719
		c0.557,0,1.024,0.238,1.404,0.713s0.57,1.123,0.57,1.941C443.751,97.389,443.564,98.103,443.192,98.578z"/>
	<path fill="#FFFFFF" d="M451.964,86.839c0-1.021-0.215-1.744-0.644-2.283s-0.964-0.78-1.605-0.78c-0.672,0-1.228,0.289-1.665,0.837
		c-0.438,0.548-0.658,1.352-0.658,2.395c0,1.006,0.218,1.779,0.652,2.313s1.003,0.802,1.705,0.802c0.558,0,1.025-0.163,1.403-0.492
		c0.378-0.328,0.639-0.814,0.782-1.46l-0.865-0.131c-0.246,0.828-0.685,1.241-1.314,1.241c-0.402,0-0.744-0.285-1.025-0.631
		c-0.28-0.345-0.438-0.65-0.473-1.65h3.701L451.964,86.839z M448.309,86c0.026,0,0.173-0.762,0.438-1.075s0.586-0.374,0.962-0.374
		c0.417,0,0.761,0.044,1.03,0.42c0.187,0.258,0.298,1.029,0.336,1.029H448.309z"/>
</g>
<g>
	<path fill="#FFFFFF" d="M584.148,117.743c-0.805,0.783-2.148,1.364-2.148,1.668v2.988c1-0.531,2-1.363,3-2.496V132h3v-17h-2.359
		C585.328,116,584.953,116.96,584.148,117.743z"/>
	<path fill="#FFFFFF" d="M594.353,115.075c-1.273,0-2.344,0.519-3.211,1.557s-1.301,2.462-1.301,4.273
		c0,1.693,0.412,3.051,1.236,4.074s1.771,1.534,2.842,1.534c0.516,0,0.984-0.121,1.406-0.363s0.801-0.602,1.137-1.078
		c-0.109,1.942-0.355,3.23-0.738,3.865c-0.383,0.634-0.875,0.952-1.477,0.952c-0.891,0-1.398-0.637-1.523-1.91l-2.613,0.352
		c0.195,1.453,0.639,2.529,1.33,3.229s1.568,1.049,2.631,1.049c1.531,0,2.777-0.69,3.738-2.071c0.961-1.381,1.441-3.647,1.441-6.8
		c0-3.097-0.461-5.315-1.383-6.653C596.946,115.744,595.774,115.075,594.353,115.075z M595.683,123.362
		c-0.363,0.491-0.799,0.737-1.307,0.737c-0.531,0-0.979-0.257-1.342-0.772s-0.545-1.326-0.545-2.433s0.166-1.898,0.498-2.375
		c0.332-0.476,0.748-0.713,1.248-0.713c0.516,0,0.977,0.289,1.383,0.866s0.609,1.403,0.609,2.479
		C596.228,122.134,596.046,122.871,595.683,123.362z"/>
	<path fill="#FFFFFF" d="M604.827,117.673c0-1.021-0.215-1.828-0.644-2.367s-0.964-0.822-1.605-0.822
		c-0.672,0-1.228,0.268-1.665,0.816c-0.438,0.548-0.658,1.341-0.658,2.385c0,1.006,0.218,1.774,0.652,2.307s1.003,0.799,1.705,0.799
		c0.558,0,1.025-0.164,1.403-0.493c0.378-0.328,0.639-0.815,0.782-1.461l-0.865-0.131c-0.246,0.828-0.685,1.241-1.314,1.241
		c-0.402,0-0.744-0.118-1.025-0.464c-0.28-0.345-0.438-0.483-0.473-1.483h3.701L604.827,117.673z M601.172,117
		c0.026,0,0.173-0.929,0.438-1.242s0.586-0.457,0.962-0.457c0.417,0,0.761,0.169,1.03,0.545c0.187,0.258,0.298,1.154,0.336,1.154
		H601.172z"/>
</g>
<g>
	<path fill="#FFFFFF" d="M657.176,267.758c0.93-1.038,1.594-1.891,1.992-2.559s0.693-1.331,0.885-1.99s0.287-1.341,0.287-2.043
		c0-1.241-0.375-2.342-1.125-3.302c-0.75-0.96-1.863-1.44-3.34-1.44c-1.344,0-2.42,0.41-3.229,1.23s-1.295,2.105-1.459,3.855
		l2.684,0.328c0.094-1.789,0.738-2.684,1.934-2.684c0.547,0,0.988,0.191,1.324,0.574c0.336,0.383,0.504,0.949,0.504,1.698
		c0,0.703-0.203,1.401-0.609,2.096c-0.273,0.476-1.004,1.39-2.191,2.74c-1.5,1.694-2.51,3.231-3.029,4.274
		c-0.52,1.042-0.83,2.465-0.932,3.465H660v-3h-5.027c0.141-1,0.326-0.8,0.557-1.112C655.76,269.576,656.309,268.733,657.176,267.758
		z"/>
	<path fill="#FFFFFF" d="M665.526,256.423c-1.359,0-2.461,0.65-3.305,1.95c-0.844,1.3-1.266,3.562-1.266,6.787
		c0,3.287,0.422,5.574,1.266,6.863c0.844,1.288,1.949,1.932,3.316,1.932c1.359,0,2.461-0.65,3.305-1.95
		c0.844-1.3,1.266-3.57,1.266-6.81c0-3.248-0.422-5.521-1.266-6.822C667.999,257.073,666.894,256.423,665.526,256.423z
		 M666.813,270.17c-0.313,0.703-0.74,1.054-1.281,1.054c-0.533,0-0.958-0.349-1.275-1.048c-0.318-0.698-0.477-2.359-0.477-4.981
		s0.158-4.285,0.477-4.987c0.317-0.702,0.742-1.054,1.275-1.054c0.541,0,0.968,0.352,1.281,1.054
		c0.313,0.703,0.471,2.365,0.471,4.987C667.284,267.81,667.127,269.468,666.813,270.17z"/>
	<path fill="#FFFFFF" d="M675.731,258.847c0-1.021-0.215-1.741-0.644-2.28s-0.964-0.779-1.605-0.779
		c-0.672,0-1.228,0.289-1.665,0.838c-0.438,0.548-0.658,1.352-0.658,2.396c0,1.006,0.218,1.78,0.652,2.313s1.003,0.802,1.705,0.802
		c0.558,0,1.025-0.163,1.403-0.492c0.378-0.328,0.639-0.814,0.782-1.46l-0.865-0.131c-0.246,0.828-0.685,1.241-1.314,1.241
		c-0.402,0-0.744-0.292-1.025-0.638c-0.28-0.345-0.438-0.657-0.473-1.657h3.701L675.731,258.847z M672.076,258
		c0.026,0,0.173-0.755,0.438-1.068s0.586-0.37,0.962-0.37c0.417,0,0.761,0.039,1.03,0.414c0.187,0.258,0.298,1.024,0.336,1.024
		H672.076z"/>
</g>
</svg>
